# xmcd CD database file
# Copyright (C) 1996 Ti Kan
#
# Track frame offsets:
#	150
#	12720
#	26567
#	38342
#	53750
#	69155
#	78537
#	91457
#	102465
#	115040
#	125290
#	138542
#	151177
#	161067
#	171262
#	188965
#	200312
#	214897
#	227077
#	240482
#	252087
#	268882
#	281320
# Disc length: 3909 seconds
#
# Revision: 2
# Processed by: cddbd v1.5.2PL0 Copyright (c) Steve Scherf et al.
# Submitted via: CDCOPY 4.900
#
DISCID=3a0f4317
DTITLE=Dave and Sugar - Anthology
DYEAR=1998
DGENRE=Country
TTITLE0=Queen of the Silver Dollar
TTITLE1=Can't Help But Wonder
TTITLE2=I'm Knee Deep in Loving You
TTITLE3=Make Believe It's Your First Time
TTITLE4=Take a Ride on a Riverboat
TTITLE5=Gotta' Quit Lookin' at You Baby
TTITLE6=My World Begins and Ends With You
TTITLE7=New York Wine and Tennessee Shine
TTITLE8=A Love Song
TTITLE9=Baby Take Your Coat Off
TTITLE10=I'm Gonna Love You
TTITLE11=Just a Whole Lotta Love
TTITLE12=That's the Way Love Should Be
TTITLE13=Delta Queen
TTITLE14=I Thought You'd Never Ask
TTITLE15=Golden Tears
TTITLE16=Don't Throw It All Away
TTITLE17=It's A Heartache
TTITLE18=You (Make Me Wonder Why)
TTITLE19=Tear Time
TTITLE20=Somebody Wake Me
TTITLE21=The Door Is Always Open
TTITLE22=Stay With Me
EXTD=
EXTT0=
EXTT1=
EXTT2=
EXTT3=
EXTT4=
EXTT5=
EXTT6=
EXTT7=
EXTT8=
EXTT9=
EXTT10=
EXTT11=
EXTT12=
EXTT13=
EXTT14=
EXTT15=
EXTT16=
EXTT17=
EXTT18=
EXTT19=
EXTT20=
EXTT21=
EXTT22=
PLAYORDER=
